#!OML:ASF F:\VICON\USERDATA\INSTALL\rory3\rory3.ASF
:FULLY-SPECIFIED
:DEGREES
64
root -0.22526301613098704 17.427768950276874 37.16517910329979 0.4820611435641893 5.2556363887134845 -2.586817719495222
lfemur -22.95160980870191 -0.8065951798310151 -24.32938642498246
ltibia 37.062721510290416
lfoot -11.35784593424395 -8.113884104774069
ltoes 0.9881756773281367
rfemur -3.676068808516046 -1.6129265407366504 26.54940485017881
rtibia 93.0029460277828
rfoot 15.557061203758515 -11.341873795301483
rtoes 13.006766628542902
lowerback 15.24764925825695 2.305620727407808 1.9411338611248934
upperback -0.6061324506333271 3.5046112386683097 0.3971498824936215
thorax -9.312060597293156 1.5687167712421641 -1.6680882203755005
lowerneck -19.494174822916793 -4.8860589839544435 -2.380333313305406
upperneck 14.576729629901063 -6.783268042950581 4.0150961684620485
head 7.929442493041473 -2.937158370383939 0.9505488360349394
lclavicle -1.503003768795655e-15 1.947379485379091e-15
lhumerus -61.9525950448563 -8.390271289675791 98.74396815845498
lradius 112.25770051798973
lwrist 31.285813168605543
lhand -25.54687109083808 2.897107042553907
lfingers 7.12502
lthumb 0.9833397163481068 32.886723514241304
rclavicle -1.503003768795655e-15 1.9473794853790912e-15
rhumerus -43.99462024461478 10.921924619387402 -98.85378266906663
rradius 104.4861577162114
rwrist -8.372764210145268
rhand -17.079364150957467 38.282586767227464
rfingers 7.12502
rthumb 9.158493968342535 9.168406305257202
65
root -0.27374380179371677 17.1668189363654 37.434727024796764 0.306496576479224 5.311334811827933 -1.5062210236925997
lfemur -20.923725565441092 -1.4263671897151038 -25.847442007166016
ltibia 40.926478216565286
lfoot -16.241654508154166 -5.329623074212841
ltoes 2.0961760997460352
rfemur -9.911227473017776 -3.5405855577578618 23.799397630213644
rtibia 100.46394964887591
rfoot 13.648605945789212 -10.950214161858193
rtoes 13.687775444612754
lowerback 15.714908815810823 2.1352607598009965 0.40855370502639565
upperback -0.34004208155108495 2.981050809865436 0.004660751670822583
thorax -9.46234003920377 1.3821459026083098 -0.9860632785815647
lowerneck -19.950432387579124 -4.84590225035822 -2.280842178348067
upperneck 14.393306935975067 -6.77109172845761 4.132871115886534
head 7.9252848802729305 -2.9030729460013087 0.9843098363353792
lclavicle -1.885445762046949e-15 1.6700103662774932e-15
lhumerus -57.601935156512816 -10.943396974647197 99.4226652313051
lradius 110.94131290143032
lwrist 31.835797613701086
lhand -25.966925008274828 3.4631852882142002
lfingers 7.12502
lthumb 0.577660577283363 33.45374428658214
rclavicle -1.885445762046949e-15 1.6700103662774932e-15
rhumerus -45.38148299156508 9.108751949854653 -99.69443754441103
rradius 102.43887809315746
rwrist -7.966701269215301
rhand -17.117808865224987 38.13875757516705
rfingers 7.12502
rthumb 9.121373317106409 9.002046153933327
66
root -0.30166397110159876 16.952145892593467 38.29597574000907 0.43999769037100167 5.168140935294508 -0.41042633590330446
lfemur -17.912255299766063 -1.9808602952529286 -26.992212450558345
ltibia 44.86887665084522
lfoot -20.182723605761186 -1.9525996934997734
ltoes 1.8202132583171853
rfemur -16.493488149110686 -5.048863141189374 21.527071972312324
rtibia 107.83440651931026
rfoot 11.905576829643842 -9.743409459043567
rtoes 14.695612731418487
lowerback 16.178466398101325 2.0173318481142175 -0.915143519364124
upperback -0.10367395997900752 2.5457389752605817 -0.3211362643901938
thorax -9.592592302660073 1.2304342602420797 -0.24909062906433654
lowerneck -20.448917247936492 -4.731699652414806 -2.169104295308912
upperneck 14.236320974009459 -6.640311744742856 4.242121170294915
head 7.935261355342447 -2.8187492311572666 1.021669163643844
lclavicle -1.5005360373665954e-15 1.9492013629458835e-15
lhumerus -52.249846256619556 -13.479104180286589 99.93799821128763
lradius 109.4284717553843
lwrist 32.36179368180373
lhand -26.186044152521916 3.85685297686865
lfingers 7.12502
lthumb 0.3660441837832282 33.84832452009148
rclavicle -1.5005360373665954e-15 1.9492013629458835e-15
rhumerus -46.72358787611209 7.45468483824955 -100.35815264532714
rradius 100.95599339186036
rwrist -7.838267607863058
rhand -17.045404747990904 38.090564452177325
rfingers 7.12502
rthumb 9.191257617606945 8.925911365361847
67
root -0.3209800827872256 16.789508082672278 38.693903867641446 0.7584456664751476 4.654384717825863 0.3046146459821055
lfemur -15.386915280925416 -2.5326067650803 -27.886312067185344
ltibia 46.98547857028984
lfoot -23.30682862025645 0.923054074066826
ltoes -0.13722546747495024
rfemur -24.012505507128072 -6.284408094166215 19.866443847309377
rtibia 112.64880972359208
rfoot 9.692712949857018 -8.434578650784676
rtoes 14.678463978578698
lowerback 16.490737423064886 1.835258975921568 -1.9972939021278575
upperback 0.017567335746014656 2.0730550683848605 -0.5538483612088263
thorax -9.732186645941528 1.0552992619736719 0.29110169036885436
lowerneck -20.949980367743724 -4.582556906252739 -2.1057568655722716
upperneck 14.0581603886691 -6.448166487741216 4.269674399768373
head 7.931013231143557 -2.713044900744557 1.0434854195367949
lclavicle -1.90869586714678e-15 1.6531339267026811e-15
lhumerus -47.353014604850166 -15.884097995171816 100.12870387074484
lradius 107.85414426236653
lwrist 32.523941905152085
lhand -26.221417864171976 3.7005716433131837
lfingers 7.12502
lthumb 0.3318920367571023 33.69433052554959
rclavicle -1.90869586714678e-15 1.6531339267026811e-15
rhumerus -48.47703792421059 5.983644253254997 -100.94722305955854
rradius 100.05015787303908
rwrist -8.221844634943226
rhand -16.928538588826232 38.06350952356655
rfingers 7.12502
rthumb 9.30405042358815 8.87709131883339
68
root -0.3262983002666585 16.722206073390446 39.784165080119635 1.2637685617929661 4.151425743453135 0.7015641878079486
lfemur -12.148817921819964 -2.8360129568514254 -28.15716900459418
ltibia 48.190589990729805
lfoot -24.658913846181395 3.075995459838759
ltoes -2.7744717553182188
rfemur -30.509858056269152 -7.050038900641766 19.238622528618734
rtibia 115.5209131088301
rfoot 7.816017170518472 -7.199757828256008
rtoes 13.92066733929789
lowerback 16.696752216214925 1.611240020623352 -2.565578680720871
upperback 0.03161623122315338 1.6453815951748714 -0.5812491220591713
thorax -9.844078255893315 0.8849368451483701 0.8208630906274195
lowerneck -21.31593636677421 -4.340402779178877 -2.0668354208083506
upperneck 13.948363711887836 -6.108674981155479 4.261298979333564
head 7.92862218118046 -2.5467164507143893 1.0694295229715731
lclavicle -1.6618396737158394e-15 1.8321174713160846e-15
lhumerus -42.642849872267426 -17.462440178522463 100.04272296563326
lradius 107.11910110991717
lwrist 32.541696536870944
lhand -26.01417343360351 3.2149623833328302
lfingers 7.12502
lthumb 0.5320530805671903 33.212511591233444
rclavicle -1.6618396737158394e-15 1.8321174713160846e-15
rhumerus -50.069385760516774 5.197654862649299 -101.2805589740629
rradius 100.10786071031089
rwrist -8.99844293127625
rhand -16.6193938260761 38.151203153578265
rfingers 7.12502
rthumb 9.602437135191186 8.945815114653367
69
root -0.32625264907367757 16.734270917422908 40.845652599424234 1.7775299980217092 3.698207132001202 0.7302771304362148
lfemur -8.996216395637159 -3.0265049038059573 -28.174994949230012
ltibia 47.62952419756943
lfoot -24.755848645141153 3.996333024856919
ltoes -6.406998478709764
rfemur -36.523501160189824 -7.585478521782303 19.276499176906814
rtibia 115.57685719132968
rfoot 6.006901094424113 -6.45070412760222
rtoes 12.229879507557492
lowerback 16.706831581151725 1.2466824582436766 -2.8507064613264133
upperback -0.08465108553970335 1.1047174078890867 -0.4550707861458041
thorax -9.937641945594228 0.6547420971330233 1.2939006582818973
lowerneck -21.562186742001227 -4.046708284221607 -2.0617553123256487
upperneck 13.897956565987911 -5.689127698177415 4.168995278815516
head 7.920893705885792 -2.3500658510089862 1.0813173845566741
lclavicle -1.8309710499061023e-15 1.7093971132073168e-15
lhumerus -38.91249510901096 -18.360774108545755 99.66028228003734
lradius 107.40388035558823
lwrist 32.63486139007899
lhand -25.778645898960303 2.445942597853595
lfingers 7.12502
lthumb 0.7595259962744155 32.44791026542044
rclavicle -1.8309710499061023e-15 1.7093971132073168e-15
rhumerus -51.93907204901415 4.897472832601826 -101.4930151377016
rradius 100.78980407645216
rwrist -10.082124293435731
rhand -16.18500482808127 38.248607099600555
rfingers 7.12502
rthumb 10.021732111330396 9.025670357745813
